<svg width="679.70615234375px" height="195.22750244140624px" xmlns="http://www.w3.org/2000/svg" viewBox="-89.85307617187499 -22.613751220703122 679.70615234375 195.22750244140624" style="background: rgba(181, 85, 0, 0);" preserveAspectRatio="xMidYMid"><defs><filter id="editing-cake" x="-100%" y="-100%" width="300%" height="300%"><feFlood flood-color="#2d1500" result="flood-shadow"></feFlood><feFlood flood-color="#894619"></feFlood><feComposite operator="in" in2="SourceAlpha"></feComposite><feConvolveMatrix order="7,10" divisor="1" result="conv" kernelMatrix="0 0 0 1 0 0 0 0 0 1 0 1 0 0 0 0 1 0 1 0 0 0 1 0 0 0 1 0 0 1 0 0 0 1 0 0 1 0 0 0 1 0 1 0 0 0 0 0 1 1 0 0 0 0 0 1 0 1 1 0 1 1 0 0 0 0 1 0 0 0 "></feConvolveMatrix><feGaussianBlur stdDeviation="0.5"></feGaussianBlur><feOffset dy="4" result="offset"></feOffset><feComposite operator="in" in="flood-shadow" in2="offset"></feComposite><feGaussianBlur stdDeviation="4"></feGaussianBlur><feComponentTransfer><feFuncA type="linear" slope="0.7" intercept="-0.2"></feFuncA></feComponentTransfer><feOffset dy="4" result="shadow"></feOffset><feGaussianBlur in="SourceGraphic" stdDeviation="0.5"></feGaussianBlur><feOffset dy="0" result="x0"></feOffset><feGaussianBlur in="SourceGraphic" stdDeviation="1"></feGaussianBlur><feComponentTransfer><feFuncA type="linear" slope="0.8" intercept="-.01"></feFuncA></feComponentTransfer><feOffset dy="1" result="x1"></feOffset><feGaussianBlur in="SourceGraphic" stdDeviation="2"></feGaussianBlur><feComponentTransfer><feFuncA type="linear" slope="0.7" intercept="-.01"></feFuncA></feComponentTransfer><feOffset dy="2" result="x2"></feOffset><feGaussianBlur in="SourceGraphic" stdDeviation="3"></feGaussianBlur><feComponentTransfer><feFuncA type="linear" slope="0.6" intercept="-.01"></feFuncA></feComponentTransfer><feOffset dy="3" result="x3"></feOffset><feMerge><feMergeNode in="shadow"></feMergeNode><feMergeNode in="offset"></feMergeNode><feMergeNode in="x3"></feMergeNode><feMergeNode in="x2"></feMergeNode><feMergeNode in="x1"></feMergeNode><feMergeNode in="x0"></feMergeNode></feMerge></filter></defs><g filter="url(#editing-cake)"><g transform="translate(12.040950298309326, 115.1099967956543)"><path d="M18.70-50.24L18.70-50.24L41.85-50.78L41.85-50.78Q43.12-50.78 43.75-50.02L43.75-50.02L43.75-50.02Q44.38-49.27 44.38-48.17L44.38-48.17L44.38-48.17Q44.38-47.07 43.85-44.63L43.85-44.63L43.85-44.63Q56.88-51.81 66.55-51.81L66.55-51.81L66.55-51.81Q70.75-51.81 74.34-49.71L74.34-49.71L74.34-49.71Q77.93-47.61 79.00-43.51L79.00-43.51L79.00-43.51Q94.92-51.81 105.37-51.81L105.37-51.81L105.37-51.81Q109.96-51.81 113.48-49.22L113.48-49.22L113.48-49.22Q117.24-46.39 117.24-41.24L117.24-41.24L117.24-41.24Q117.24-36.08 115.45-30.40L115.45-30.40L115.45-30.40Q113.67-24.71 111.89-19.78L111.89-19.78L111.89-19.78Q110.11-14.84 110.11-12.82L110.11-12.82L110.11-12.82Q110.11-10.79 111.13-9.77L111.13-9.77L111.13-9.77Q112.16-8.74 113.87-8.74L113.87-8.74L113.87-8.74Q120.17-8.74 129.49-13.13L129.49-13.13L129.49-13.13Q131.25-13.92 132.18-13.92L132.18-13.92L132.18-13.92Q134.38-13.92 134.38-12.16L134.38-12.16L134.38-12.16Q134.38-10.60 132.50-9.20L132.50-9.20L132.50-9.20Q130.62-7.81 127.05-6.15L127.05-6.15L127.05-6.15Q123.49-4.49 118.24-2.59L118.24-2.59L118.24-2.59Q112.99-0.68 105.91 0.63L105.91 0.63L105.91 0.63Q98.83 1.95 93.29 1.95L93.29 1.95L93.29 1.95Q87.74 1.95 85.01 0.10L85.01 0.10L85.01 0.10Q82.28-1.76 82.28-4.69L82.28-4.69L82.28-4.69Q82.28-7.62 84.16-13.48L84.16-13.48L84.16-13.48Q86.04-19.34 87.94-25.07L87.94-25.07L87.94-25.07Q89.84-30.81 89.84-33.42L89.84-33.42L89.84-33.42Q89.84-36.04 88.57-37.18L88.57-37.18L88.57-37.18Q87.30-38.33 84.79-38.33L84.79-38.33L84.79-38.33Q82.28-38.33 79.25-37.55L79.25-37.55L79.25-37.55Q78.47-29.20 72.75-12.11L72.75-12.11L72.75-12.11Q70.36-4.93 70.07-3.13L70.07-3.13L70.07-3.13Q69.78-1.32 69.68-1.05L69.68-1.05L69.68-1.05Q69.58-0.78 69.34-0.34L69.34-0.34L69.34-0.34Q68.90 0.44 67.48 0.44L67.48 0.44L67.48 0.44Q60.45 0.44 53.59 0.71L53.59 0.71L53.59 0.71Q46.73 0.98 44.75 0.98L44.75 0.98L44.75 0.98Q42.77 0.98 42.77-1.32L42.77-1.32L42.77-1.32Q42.77-3.61 44.29-8.15L44.29-8.15L44.29-8.15Q45.80-12.70 47.66-17.19L47.66-17.19L47.66-17.19Q52.49-29.10 52.49-34.96L52.49-34.96L52.49-34.96Q52.49-39.31 46.83-39.31L46.83-39.31L46.83-39.31Q44.43-39.31 42.29-38.53L42.29-38.53L42.29-38.53Q40.38-32.03 35.72-17.97L35.72-17.97L35.72-17.97Q31.05-3.91 30.47-2.15L30.47-2.15L30.47-2.15Q29.69 0.44 27.69 0.44L27.69 0.44L2.59 0.98L2.59 0.98Q2.05 0.98 1.39 0.32L1.39 0.32L1.39 0.32Q0.73-0.34 0.73-1.25L0.73-1.25L0.73-1.25Q0.73-2.15 2.81-7.64L2.81-7.64L2.81-7.64Q4.88-13.13 7.37-19.46L7.37-19.46L7.37-19.46Q9.86-25.78 11.94-33.37L11.94-33.37L11.94-33.37Q14.01-40.97 14.01-45.95L14.01-45.95L13.96-47.80L13.96-47.80Q13.96-50.24 18.70-50.24ZM163.33-10.45L163.33-10.45L163.33-10.45Q172.51-10.45 178.66-24.51L178.66-24.51L178.66-24.51Q181.49-30.96 181.49-34.96L181.49-34.96L181.49-34.96Q181.49-38.96 180.15-40.48L180.15-40.48L180.15-40.48Q178.81-41.99 174.88-41.99L174.88-41.99L174.88-41.99Q170.95-41.99 166.38-38.35L166.38-38.35L166.38-38.35Q161.82-34.72 159.03-29.20L159.03-29.20L159.03-29.20Q156.25-23.68 156.25-19.26L156.25-19.26L156.25-19.26Q156.25-14.84 158.20-12.65L158.20-12.65L158.20-12.65Q160.16-10.45 163.33-10.45ZM188.72-51.81L188.72-51.81L211.08-50.78L211.08-50.78Q212.35-50.78 212.99-50.02L212.99-50.02L212.99-50.02Q213.62-49.27 213.62-48.34L213.62-48.34L213.62-48.34Q213.62-44.78 210.67-36.99L210.67-36.99L210.67-36.99Q207.71-29.20 204.76-21.56L204.76-21.56L204.76-21.56Q201.81-13.92 201.81-11.45L201.81-11.45L201.81-11.45Q201.81-8.98 202.56-8.30L202.56-8.30L202.56-8.30Q203.32-7.62 205.47-7.62L205.47-7.62L205.47-7.62Q207.62-7.62 213.31-9.69L213.31-9.69L213.31-9.69Q218.99-11.77 221.02-12.84L221.02-12.84L221.02-12.84Q223.05-13.92 224.12-13.92L224.12-13.92L224.12-13.92Q226.03-13.92 226.03-12.21L226.03-12.21L226.03-12.21Q226.03-8.59 211.38-2.73L211.38-2.73L211.38-2.73Q206.45-0.73 199.49 0.61L199.49 0.61L199.49 0.61Q192.53 1.95 185.35 1.95L185.35 1.95L185.35 1.95Q173.39 1.95 170.95-5.66L170.95-5.66L170.95-5.66Q163.33 1.95 150.44 1.95L150.44 1.95L150.44 1.95Q141.60 1.95 135.50-2.29L135.50-2.29L135.50-2.29Q128.86-6.93 128.86-16.89L128.86-16.89L128.86-16.89Q128.86-27.39 135.06-36.23L135.06-36.23L135.06-36.23Q141.85-46.04 153.22-49.76L153.22-49.76L153.22-49.76Q159.52-51.81 166.75-51.81L166.75-51.81L166.75-51.81Q177.83-51.81 183.98-46.34L183.98-46.34L183.98-46.34Q184.03-46.63 184.03-47.27L184.03-47.27L183.98-49.37L183.98-49.37Q183.98-51.81 188.72-51.81ZM265.09-49.71L265.09-49.71L277.93-51.37L277.93-51.37Q281.54-51.37 281.54-48.54L281.54-48.54L281.54-48.54Q281.54-45.70 278.13-45.00L278.13-45.00L278.13-45.00Q274.71-44.29 262.70-43.12L262.70-43.12L262.70-43.12Q261.04-38.77 257.71-31.05L257.71-31.05L257.71-31.05Q250.93-15.23 250.93-12.06L250.93-12.06L250.93-12.06Q250.93-8.59 255.22-8.59L255.22-8.59L255.22-8.59Q269.09-8.59 280.13-13.23L280.13-13.23L280.13-13.23Q281.74-13.92 282.67-13.92L282.67-13.92L282.67-13.92Q284.47-13.92 284.47-12.30L284.47-12.30L284.47-12.30Q284.47-10.69 282.13-9.13L282.13-9.13L282.13-9.13Q274.95-4.39 260.50-1.22L260.50-1.22L260.50-1.22Q246.04 1.95 233.84 1.95L233.84 1.95L233.84 1.95Q226.90 1.95 223.24-0.22L223.24-0.22L223.24-0.22Q219.58-2.39 219.58-6.20L219.58-6.20L219.58-6.20Q219.58-10.06 224.66-20.61L224.66-20.61L224.66-20.61Q230.37-32.42 232.86-41.36L232.86-41.36L232.86-41.36Q229.83-41.21 228.66-41.21L228.66-41.21L228.66-41.21Q225.78-41.21 225.78-43.55L225.78-43.55L225.78-43.55Q225.78-45.26 226.71-45.85L226.71-45.85L226.71-45.85Q227.64-46.44 228.64-46.68L228.64-46.68L228.64-46.68Q229.64-46.92 230.35-47.00L230.35-47.00L230.35-47.00Q231.05-47.07 232.32-47.17L232.32-47.17L232.32-47.17Q233.59-47.27 234.18-47.31L234.18-47.31L234.18-47.31Q234.81-51.03 234.81-54.30L234.81-54.30L234.77-56.15L234.77-56.15Q234.77-58.35 240.33-59.13L240.33-59.13L240.33-59.13Q242.19-59.38 252.00-61.57L252.00-61.57L252.00-61.57Q261.82-63.77 264.01-63.77L264.01-63.77L264.01-63.77Q267.53-63.77 267.53-61.33L267.53-61.33L267.53-61.33Q267.53-57.13 265.09-49.71ZM323.54-49.71L323.54-49.71L336.38-51.37L336.38-51.37Q339.99-51.37 339.99-48.54L339.99-48.54L339.99-48.54Q339.99-45.70 336.57-45.00L336.57-45.00L336.57-45.00Q333.15-44.29 321.14-43.12L321.14-43.12L321.14-43.12Q319.48-38.77 316.16-31.05L316.16-31.05L316.16-31.05Q309.38-15.23 309.38-12.06L309.38-12.06L309.38-12.06Q309.38-8.59 313.67-8.59L313.67-8.59L313.67-8.59Q327.54-8.59 338.57-13.23L338.57-13.23L338.57-13.23Q340.19-13.92 341.11-13.92L341.11-13.92L341.11-13.92Q342.92-13.92 342.92-12.30L342.92-12.30L342.92-12.30Q342.92-10.69 340.58-9.13L340.58-9.13L340.58-9.13Q333.40-4.39 318.95-1.22L318.95-1.22L318.95-1.22Q304.49 1.95 292.29 1.95L292.29 1.95L292.29 1.95Q285.35 1.95 281.69-0.22L281.69-0.22L281.69-0.22Q278.03-2.39 278.03-6.20L278.03-6.20L278.03-6.20Q278.03-10.06 283.11-20.61L283.11-20.61L283.11-20.61Q288.82-32.42 291.31-41.36L291.31-41.36L291.31-41.36Q288.28-41.21 287.11-41.21L287.11-41.21L287.11-41.21Q284.23-41.21 284.23-43.55L284.23-43.55L284.23-43.55Q284.23-45.26 285.16-45.85L285.16-45.85L285.16-45.85Q286.08-46.44 287.08-46.68L287.08-46.68L287.08-46.68Q288.09-46.92 288.79-47.00L288.79-47.00L288.79-47.00Q289.50-47.07 290.77-47.17L290.77-47.17L290.77-47.17Q292.04-47.27 292.63-47.31L292.63-47.31L292.63-47.31Q293.26-51.03 293.26-54.30L293.26-54.30L293.21-56.15L293.21-56.15Q293.21-58.35 298.78-59.13L298.78-59.13L298.78-59.13Q300.63-59.38 310.45-61.57L310.45-61.57L310.45-61.57Q320.26-63.77 322.46-63.77L322.46-63.77L322.46-63.77Q325.98-63.77 325.98-61.33L325.98-61.33L325.98-61.33Q325.98-57.13 323.54-49.71ZM383.84-68.85L383.84-68.85L383.84-68.85Q383.84-63.62 378.05-59.74L378.05-59.74L378.05-59.74Q372.27-55.86 365.84-55.86L365.84-55.86L365.84-55.86Q359.42-55.86 355.86-58.47L355.86-58.47L355.86-58.47Q352.29-61.08 352.29-64.84L352.29-64.84L352.29-64.84Q352.29-68.60 355.03-71.68L355.03-71.68L355.03-71.68Q357.76-74.76 362.13-76.51L362.13-76.51L362.13-76.51Q366.50-78.27 371.63-78.27L371.63-78.27L371.63-78.27Q376.76-78.27 380.30-75.56L380.30-75.56L380.30-75.56Q383.84-72.85 383.84-68.85ZM370.12-8.25L370.12-8.25L370.12-8.25Q373.44-8.25 379.13-9.84L379.13-9.84L379.13-9.84Q384.81-11.43 387.40-12.67L387.40-12.67L387.40-12.67Q389.99-13.92 391.02-13.92L391.02-13.92L391.02-13.92Q393.07-13.92 393.07-11.87L393.07-11.87L393.07-11.87Q393.07-10.94 391.55-9.77L391.55-9.77L391.55-9.77Q386.57-6.05 373.63-2.05L373.63-2.05L373.63-2.05Q360.69 1.95 350.54 1.95L350.54 1.95L350.54 1.95Q344.24 1.95 339.99-0.05L339.99-0.05L339.99-0.05Q335.74-2.05 335.74-6.15L335.74-6.15L335.74-6.15Q335.74-8.64 339.99-18.36L339.99-18.36L339.99-18.36Q348.00-36.77 348.00-46.09L348.00-46.09L347.95-47.95L347.95-47.95Q347.95-50.39 352.69-50.39L352.69-50.39L376.81-50.93L376.81-50.93Q378.08-50.93 378.71-50.17L378.71-50.17L378.71-50.17Q379.35-49.41 379.35-48.49L379.35-48.49L379.35-48.49Q379.35-45.12 376.27-37.38L376.27-37.38L376.27-37.38Q373.19-29.64 370.12-22.17L370.12-22.17L370.12-22.17Q367.04-14.70 367.04-11.47L367.04-11.47L367.04-11.47Q367.04-8.25 370.12-8.25ZM483.06-13.92L483.06-13.92L483.06-13.92Q484.86-13.92 484.86-12.23L484.86-12.23L484.86-12.23Q484.86-10.55 483.08-9.28L483.08-9.28L483.08-9.28Q481.30-8.01 477.83-6.37L477.83-6.37L477.83-6.37Q474.37-4.74 469.21-2.78L469.21-2.78L469.21-2.78Q464.06-0.83 457.30 0.56L457.30 0.56L457.30 0.56Q450.54 1.95 444.38 1.95L444.38 1.95L444.38 1.95Q429.88 1.95 429.88-4.69L429.88-4.69L429.88-4.69Q429.88-8.98 434.79-20.04L434.79-20.04L434.79-20.04Q439.70-31.10 439.70-34.96L439.70-34.96L439.70-34.96Q439.70-39.31 432.91-39.31L432.91-39.31L432.91-39.31Q429.83-39.31 425.93-38.53L425.93-38.53L425.93-38.53Q424.07-31.98 419.31-17.72L419.31-17.72L419.31-17.72Q414.55-3.47 413.94-1.51L413.94-1.51L413.94-1.51Q413.33 0.44 411.33 0.44L411.33 0.44L386.18 0.98L386.18 0.98Q385.64 0.98 384.99 0.32L384.99 0.32L384.99 0.32Q384.33-0.34 384.33-1.25L384.33-1.25L384.33-1.25Q384.33-2.15 386.40-7.64L386.40-7.64L386.40-7.64Q388.48-13.13 390.99-19.46L390.99-19.46L390.99-19.46Q393.51-25.78 395.58-33.37L395.58-33.37L395.58-33.37Q397.66-40.97 397.66-45.95L397.66-45.95L397.61-47.80L397.61-47.80Q397.61-50.24 402.34-50.24L402.34-50.24L425.49-50.78L425.49-50.78Q426.76-50.78 427.39-50.02L427.39-50.02L427.39-50.02Q428.03-49.27 428.03-48.17L428.03-48.17L428.03-48.17Q428.03-47.07 427.49-44.63L427.49-44.63L427.49-44.63Q444.68-51.81 455.71-51.81L455.71-51.81L455.71-51.81Q460.40-51.81 464.26-49.22L464.26-49.22L464.26-49.22Q468.55-46.34 468.55-40.48L468.55-40.48L468.55-40.48Q468.55-34.47 464.01-24.76L464.01-24.76L464.01-24.76Q459.47-15.04 459.47-12.74L459.47-12.74L459.47-12.74Q459.47-8.20 463.09-8.20L463.09-8.20L463.09-8.20Q465.38-8.20 470.92-9.94L470.92-9.94L470.92-9.94Q476.46-11.67 479.13-12.79L479.13-12.79L479.13-12.79Q481.79-13.92 483.06-13.92Z" fill="#ffd800"></path></g></g><style>text {
  font-size: 64px;
  font-family: Arial Black;
  dominant-baseline: central;
  text-anchor: middle;
}</style></svg>