<?xml version="1.0" encoding="UTF-8" standalone="no"?>
<!-- Created with Inkscape (http://www.inkscape.org/) -->

<svg
   xmlns:dc="http://purl.org/dc/elements/1.1/"
   xmlns:cc="http://creativecommons.org/ns#"
   xmlns:rdf="http://www.w3.org/1999/02/22-rdf-syntax-ns#"
   xmlns:svg="http://www.w3.org/2000/svg"
   xmlns="http://www.w3.org/2000/svg"
   xmlns:sodipodi="http://sodipodi.sourceforge.net/DTD/sodipodi-0.dtd"
   xmlns:inkscape="http://www.inkscape.org/namespaces/inkscape"
   version="1.1"
   id="svg3713"
   width="966.93103"
   height="265.29312"
   viewBox="0 0 966.93103 265.29312"
   sodipodi:docname="mattin.svg"
   inkscape:version="0.92.5 (2060ec1f9f, 2020-04-08)">
  <metadata
     id="metadata3719">
    <rdf:RDF>
      <cc:Work
         rdf:about="">
        <dc:format>image/svg+xml</dc:format>
        <dc:type
           rdf:resource="http://purl.org/dc/dcmitype/StillImage" />
        <dc:title />
      </cc:Work>
    </rdf:RDF>
  </metadata>
  <defs
     id="defs3717" />
  <sodipodi:namedview
     pagecolor="#ffffff"
     bordercolor="#666666"
     borderopacity="1"
     objecttolerance="10"
     gridtolerance="10"
     guidetolerance="10"
     inkscape:pageopacity="0"
     inkscape:pageshadow="2"
     inkscape:window-width="1920"
     inkscape:window-height="1027"
     id="namedview3715"
     showgrid="false"
     inkscape:zoom="0.5914898"
     inkscape:cx="167.29682"
     inkscape:cy="97.182865"
     inkscape:window-x="-8"
     inkscape:window-y="-8"
     inkscape:window-maximized="1"
     inkscape:current-layer="g3921" />
  <g
     id="g3841"
     transform="translate(1.363265,31.830042)">
    <g
       id="g3921"
       transform="translate(21.978401,-326.29472)">
      <path
         style="fill:#000000;fill-opacity:1"
         d="m 635.38608,489.88187 c -0.83622,-0.83621 -0.87706,-5.78961 -0.0545,-6.61214 0.33668,-0.33668 0.53812,-21.51973 0.44764,-47.07346 -0.1416,-39.99001 0.0517,-46.97879 1.38785,-50.17664 1.26688,-3.03207 1.55237,-8.45452 1.55237,-29.48515 0,-22.08257 0.2967,-27.24985 2.07361,-36.11362 4.37519,-21.82471 10.53564,-28.50508 15.7755,-17.10689 5.5058,11.97671 6.43783,18.67014 7.06454,50.73457 0.5074,25.96039 0.82199,30.43094 2.33635,33.20034 1.58852,2.90502 1.75,7.09707 1.75,45.429 0,30.91217 -0.3297,43.14043 -1.23031,45.63102 -1.07603,2.97571 -1.01333,3.52379 0.5,4.37069 1.99157,1.11454 2.29308,4.90618 0.53031,6.66895 -1.29217,1.29217 -30.88336,1.78331 -32.13333,0.53333 z m 29.33333,-3.33333 c 0,-0.61925 -5.35301,-1 -14.05902,-1 -9.11803,0 -13.84181,0.35145 -13.44098,1 0.36242,0.58641 6.17705,1 14.05902,1 8.29399,0 13.44098,-0.38293 13.44098,-1 z m -2,-6 c 0,-0.6087 -4.5,-1 -11.5,-1 -7,0 -11.5,0.3913 -11.5,1 0,0.6087 4.5,1 11.5,1 7,0 11.5,-0.3913 11.5,-1 z m 1,-46.5 v -41.5 h -12.5 -12.5 v 41.5 41.5 h 12.5 12.5 z m -22,16.08333 c 0,-21.31316 0.2019,-24.58333 1.51778,-24.58333 1.32255,0 1.48333,3.10848 1.25,24.1672 -0.20222,18.25081 -0.57379,24.26908 -1.51778,24.58334 -0.97739,0.32537 -1.25,-4.94527 -1.25,-24.16721 z m 0,-38.58333 c 0,-6.88889 0.31061,-9.06313 1.25,-8.75 0.86667,0.28889 1.25,2.97222 1.25,8.75 0,5.77778 -0.38333,8.46111 -1.25,8.75 -0.93939,0.31313 -1.25,-1.86111 -1.25,-8.75 z m 21,-23.91821 c 0,-3.68067 -1.13012,-4.08179 -11.5,-4.08179 -10.36988,0 -11.5,0.40112 -11.5,4.08179 0,0.50501 5.175,0.91821 11.5,0.91821 6.325,0 11.5,-0.4132 11.5,-0.91821 z m -2,-16.58179 v -3.5 h -9.5 -9.5 v 3.5 3.5 h 9.5 9.5 z m -16.83206,-14.49775 c -0.28441,-5.9975 -0.0933,-7.00225 1.33206,-7.00225 1.42534,0 1.61647,1.00475 1.33206,7.00225 l -0.33206,7.00226 7.25,-0.002 7.25,-0.002 v -15.5 -15.5 h -9.5 -9.5 v 15.5 c 0,11.73213 0.30386,15.50055 1.25,15.50225 0.91276,0.002 1.16041,-1.88692 0.91794,-7 z m -0.16794,-15.50225 c 0,-2.44444 0.45238,-3.5 1.5,-3.5 1.04762,0 1.5,1.05556 1.5,3.5 0,2.44445 -0.45238,3.5 -1.5,3.5 -1.04762,0 -1.5,-1.05555 -1.5,-3.5 z m 16,-14.62621 c 0,-1.16942 -0.91554,-6.02592 -2.03454,-10.79223 -2.12257,-9.04099 -5.28364,-15.62098 -6.99601,-14.56267 -1.48145,0.91558 -3.76758,6.85726 -5.99488,15.58071 -3.16066,12.37907 -3.42312,11.9004 6.52543,11.9004 8.00152,0 8.5,-0.12469 8.5,-2.12621 z m 20.25,163.46393 c -1.27207,-0.51329 -1.75295,-5.50144 -0.63786,-6.61653 0.33668,-0.33668 0.53833,-21.46037 0.4481,-46.94154 -0.15794,-44.60863 -0.0886,-46.49562 1.8659,-50.80453 1.88093,-4.14664 2.03155,-6.50262 2.0519,-32.0969 0.0207,-26.00012 0.16622,-28.19044 2.47911,-37.30813 3.1185,-12.2935 6.16913,-18.07009 9.54285,-18.07009 3.37372,0 6.42435,5.77659 9.54285,18.07009 2.31289,9.11769 2.45844,11.30801 2.47911,37.30813 0.0204,25.59428 0.17097,27.95026 2.0519,32.0969 1.95454,4.30891 2.02384,6.1959 1.8659,50.80453 -0.0902,25.48117 0.11142,46.60486 0.4481,46.94154 1.26749,1.26749 0.5678,6.08185 -0.96965,6.67182 -1.88008,0.72146 -29.36406,0.6727 -31.16821,-0.0553 z m 29.75,-3.33772 c 0,-0.61905 -5.33333,-1 -14,-1 -8.66667,0 -14,0.38095 -14,1 0,0.61905 5.33333,1 14,1 8.66667,0 14,-0.38095 14,-1 z m -2,-6 c 0,-0.61111 -4.66667,-1 -12,-1 -7.33333,0 -12,0.38889 -12,1 0,0.61111 4.66667,1 12,1 7.33333,0 12,-0.38889 12,-1 z m 0.5,-46.5 v -41 h -12.5 -12.5 l -0.26169,39.99834 c -0.14393,21.99908 -0.0402,40.5755 0.23048,41.28093 0.37177,0.96881 3.49392,1.21387 12.7617,1.00167 l 12.26951,-0.28094 z m -21.83333,39.83333 c -0.36667,-0.36666 -0.66667,-11.39166 -0.66667,-24.5 0,-20.51852 0.20862,-23.83333 1.5,-23.83333 1.29252,0 1.5,3.38889 1.5,24.5 0,22.36685 -0.33884,25.82783 -2.33333,23.83333 z m 0,-54 c -0.36667,-0.36666 -0.66667,-4.41666 -0.66667,-9 0,-6.74074 0.28667,-8.33333 1.5,-8.33333 1.22222,0 1.5,1.66667 1.5,9 0,8.25453 -0.52765,10.13901 -2.33333,8.33333 z m 20.43872,-33.58333 c -0.77437,-2.09882 -1.49952,-2.26902 -10.7922,-2.53304 -9.80987,-0.27873 -9.97968,-0.24436 -11.11618,2.25 l -1.15413,2.53304 h 11.94633 11.94634 z m -2.10539,-15.25 v -3.5 h -9 -9 v 3.5 3.5 h 9 9 z m -16.01822,-9.53404 c -1.61155,-3.01121 -0.86074,-11.46596 1.01822,-11.46596 1.18519,0 1.5,1.41669 1.5,6.75014 v 6.75014 l 6.75,-1.4e-4 6.75,-1.4e-4 v -15.5 -15.5 h -9 -9 v 15.5 c 0,13.26899 0.22097,15.5 1.53518,15.5 1.23387,0 1.32153,-0.39923 0.4466,-2.03404 z m -0.57168,-19.46813 c -0.77482,-3.08711 0.94651,-5.54122 2.67456,-3.81316 1.36565,1.36564 0.81775,5.5262 -0.79778,6.05804 -0.66721,0.21966 -1.51177,-0.79054 -1.87678,-2.24488 z m 16.5899,-14.3696 c 0,-1.91474 -4.85967,-19.86425 -6.32945,-23.37823 -0.86267,-2.0625 -2.06442,-3.75 -2.67055,-3.75 -1.8824,0 -5.91693,11.98068 -8.33465,24.75 l -0.61535,3.25 h 8.975 c 4.93625,0 8.975,-0.3923 8.975,-0.87177 z m 19.22425,161.69602 c -1.6943,-1.6943 -1.53029,-3.8286 0.46353,-6.03175 1.43109,-1.58133 1.50714,-2.36457 0.5,-5.14974 -0.84734,-2.3433 -1.18149,-15.3022 -1.16582,-45.21376 0.0208,-39.61174 0.13128,-42.16992 2,-46.2882 1.80627,-3.98066 1.97804,-6.59016 1.97804,-30.05 0,-15.03422 0.39718,-26.08798 0.95753,-26.64833 0.52664,-0.52664 1.08914,-5.00414 1.25,-9.95 l 0.29247,-8.99247 h 10 10 l 0.29247,8.99247 c 0.16086,4.94586 0.72336,9.42336 1.25,9.95 0.56032,0.56032 0.95753,11.60942 0.95753,26.63541 0,20.89081 0.28792,26.36697 1.54442,29.3742 1.32344,3.16742 1.52664,10.30352 1.42014,49.87212 -0.0684,25.39669 0.17223,46.93057 0.53465,47.85307 0.36243,0.9225 0.51087,2.7225 0.32987,4 -0.32624,2.30267 -0.46314,2.3251 -15.85483,2.59698 -11.22977,0.19837 -15.86449,-0.0645 -16.75,-0.95 z m 30.27575,-2.82425 c 0.40083,-0.64855 -4.32295,-1 -13.44098,-1 -8.70601,0 -14.05902,0.38075 -14.05902,1 0,0.61707 5.14699,1 13.44098,1 7.88197,0 13.6966,-0.41359 14.05902,-1 z m -2.5,-6 c 0,-0.6087 -4.5,-1 -11.5,-1 -7,0 -11.5,0.3913 -11.5,1 0,0.6087 4.5,1 11.5,1 7,0 11.5,-0.3913 11.5,-1 z m -20.78475,-29.66448 c -0.18518,-16.04086 0.0771,-25.02785 0.75,-25.70077 0.713,-0.713 1.03475,6.95653 1.03475,24.66525 v 25.7 h 10 10 v -41.5 -41.5 h -12.5 -12.5 v 41.5 c 0,38.85685 0.11146,41.50005 1.75,41.50077 1.62708,7.1e-4 1.73,-1.73175 1.46525,-24.66525 z m -0.21525,-39.33552 c 0,-5.33333 0.40741,-9 1,-9 0.59259,0 1,3.66667 1,9 0,5.33333 -0.40741,9 -1,9 -0.59259,0 -1,-3.66667 -1,-9 z m 21,-23.91821 c 0,-3.68653 -1.12396,-4.08179 -11.60699,-4.08179 -5.71615,0 -10.39301,0.4132 -10.39301,0.91821 0,0.50502 -0.27314,1.63002 -0.60699,2.5 -0.53201,1.3864 0.82679,1.58179 11,1.58179 6.38385,0 11.60699,-0.4132 11.60699,-0.91821 z m -2,-16.58179 v -3.5 h -9.5 -9.5 v 3.5 3.5 h 9.5 9.5 z m 0,-23 v -15.5 h -9.5 -9.5 v 15.5 15.5 h 9.5 9.5 z m -11.64326,9.98727 c -0.31927,-0.83201 -0.0778,-2.11839 0.5365,-2.85864 0.84701,-1.02058 0.63377,-1.96023 -0.88224,-3.88751 -2.39853,-3.04924 -3.0108,-6.84374 -1.20728,-7.48212 0.90842,-0.32155 1.21163,0.37125 1,2.28487 -0.18514,1.67409 0.24192,2.93665 1.09383,3.23376 1.13911,0.39728 1.29841,-0.7476 0.86144,-6.1913 -0.38162,-4.75419 -0.20802,-6.56787 0.60246,-6.2941 0.70231,0.23723 1.00825,2.1707 0.79848,5.04618 -0.22386,3.06865 0.0569,4.66159 0.82157,4.66159 0.67714,0 1.02751,-1.13922 0.84007,-2.73144 -0.23889,-2.02912 0.16267,-2.82595 1.56168,-3.09899 1.61161,-0.31452 1.78122,0.0434 1.17587,2.48145 -0.38906,1.56694 -1.57402,3.77799 -2.63325,4.91343 -2.23267,2.39334 -2.43569,4.64006 -0.67587,7.47963 1.0303,1.66245 0.98636,2.18465 -0.25,2.97112 -2.10776,1.34078 -2.97436,1.2152 -3.64326,-0.52793 z m 10.64326,-36.98727 v -7.5 h -8.5 -8.5 v 7.5 7.5 h 8.5 8.5 z m -15.29876,4.86791 c -0.38568,-0.38568 -0.70124,-1.52624 -0.70124,-2.53457 0,-1.30212 0.74453,-1.83334 2.56955,-1.83334 2.08969,0 2.50988,0.41828 2.25,2.23979 -0.31628,2.21685 -2.76448,3.48195 -4.11831,2.12812 z m 9.96543,-0.0346 c -0.36667,-0.36667 -0.66667,-1.49167 -0.66667,-2.5 0,-1.28889 0.74242,-1.83334 2.5,-1.83334 2.87644,0 3.58107,3.37118 0.91821,4.39301 -1.95858,0.75158 -1.93988,0.75199 -2.75154,-0.0597 z m -763.947206,161.66681 -2.78054,-2.19335 0.28054,-89.83061 c 0.27923,-89.41374 0.29026,-89.84371 2.37604,-92.6534 3.32237,-4.47545 8.19656,-5.60605 21.40449031,-4.96493 13.79858969,0.66979 20.94137969,2.59533 24.26073969,6.54017 4.79877,5.70301 5.57817,8.51543 26.838321,96.84427 3.47398,14.43327 6.65635,25.90229 7.07193,25.48671 0.65787,-0.65787 6.13283,-22.67833 22.80664,-91.72901 8.33764,-34.52835 10.63298,-36.81849 37.022375,-36.93857 14.93194,-0.0679 16.8862,0.49817 19.73965,5.71822 1.63703,2.99476 1.78001,9.46574 2.04104,92.37363 l 0.28069,89.15328 -2.78069,2.19347 c -2.36338,1.86428 -3.73681,2.13316 -9.15158,1.79162 -4.77484,-0.30116 -6.7164,-0.87433 -7.75,-2.28787 -1.14631,-1.56766 -1.37911,-16.10797 -1.37911,-86.13589 0,-46.33742 -0.36609,-84.47611 -0.81353,-84.75264 -0.44745,-0.27654 -2.98668,-0.1906 -5.64274,0.19098 -3.57379,0.51342 -5.34179,1.38057 -6.80101,3.33568 -1.30642,1.75039 -8.023335,26.72192 -19.904735,74 -20.13262,80.11108 -18.57188,75.85809 -27.83799,75.85809 -8.925,0 -8.64482,0.6169 -19.52895,-43 C 22.171194,358.34575 13.718084,325.48112 12.358084,322.22759 c -1.85644,-4.44115 -3.4061997,-5.42981 -9.1386797,-5.83 l -5,-0.34905 -0.5,85.20026 c -0.38958,66.3849 -0.77666,85.47687 -1.75278,86.45279 -0.68903,0.68888 -4.06403,1.4298 -7.5000003,1.64648 -5.28233,0.33311 -6.67667,0.0552 -9.02775,-1.79938 z m 219.721666,0.58071 c -1.88741,-1.37987 -1.94883,-3.50384 -2.21953,-76.75 -0.28926,-78.2679 0.007,-85.43877 3.84363,-92.95871 8.35921,-16.38541 26.36418,-23.97081 56.86267,-23.95596 37.32474,0.0182 55.30685,10.97229 58.11613,35.40243 1.345,11.69651 1.24889,151.78075 -0.10659,155.34593 -1.45861,3.83642 -2.50381,4.30254 -9.68744,4.32014 -10.8014,0.0265 -10.25,2.15054 -10.25,-39.48469 v -35.5 h -39 -39 v 35.5 c 0,41.65387 0.56213,39.5 -10.30887,39.5 -3.86958,0 -7.0594,-0.5487 -8.25,-1.41914 z m 96.35617,-124.58086 c 0.19214,-21.00507 -0.0811,-33.80561 -0.77259,-36.19141 -1.4145,-4.88043 -7.58524,-10.06146 -14.80644,-12.43168 -4.68582,-1.53803 -8.78766,-1.87691 -22.71827,-1.87691 -19.13951,0 -25.256,1.09183 -31.51462,5.62556 -8.13235,5.89104 -7.97742,5.05721 -7.98164,42.95777 -0.002,18.47084 0.30153,33.88861 0.67464,34.26172 0.37311,0.37311 17.81061,0.56061 38.75,0.41666 l 38.07162,-0.26171 z m 107.2027,125.35868 c -4.05212,-1.59046 -4,-0.43675 -4,-88.54981 v -84.80887 h -22.87756 c -26.34905,0 -25.65836,0.23744 -25.56701,-8.78919 0.0995,-9.83241 -3.90923,-9.21081 59.40037,-9.21081 53.08638,0 54.78761,0.059 56.50748,1.95942 2.28694,2.52705 3.01164,9.79781 1.29978,13.04058 l -1.31974,2.5 -22.97166,0.5 -22.97166,0.5 -0.5,85.20026 c -0.38958,66.3849 -0.77666,85.47687 -1.75278,86.45279 -1.31704,1.31676 -12.67579,2.21492 -15.24722,1.20563 z m 128.25,-0.38984 c -1.2375,-0.49742 -2.35618,-1.03139 -2.48596,-1.18662 -0.12977,-0.15522 -0.46727,-38.75722 -0.75,-85.78222 l -0.51404,-85.5 -23.21535,-0.26834 -23.21536,-0.26835 -1.16403,-3.88519 c -0.64022,-2.13686 -0.86313,-5.48914 -0.49536,-7.44951 1.3183,-7.02718 -2.20231,-6.62861 58.55074,-6.62861 63.3963,0 59.16169,-0.66203 59.25088,9.26322 0.0283,3.14995 -0.50455,6.38493 -1.18718,7.20745 -1.01856,1.2273 -5.25985,1.54002 -23.88143,1.76083 l -22.64291,0.2685 -0.5,84.83857 -0.5,84.83857 -2.36078,1.91143 c -2.56033,2.07299 -10.72149,2.55549 -14.88922,0.88027 z m 287.61078,-0.88093 -2.36078,-1.9121 v -88.3379 c 0,-95.47092 -0.074,-94.10843 5.29986,-97.62333 2.16337,-1.415 4.98698,-1.70384 16.16076,-1.65315 21.49805,0.0975 27.08913,3.02835 31.84813,16.69468 1.1959,3.43414 9.8405,37.29389 19.2103,75.24389 9.3698,37.95 17.7347,71.13726 18.5887,73.74946 1.9248,5.88791 4.4758,7.75054 10.6148,7.75054 h 4.7775 v -84.97695 -84.97694 l 2.4619,-1.6131 c 3.6635,-2.40045 9.5435,-2.87542 13.7643,-1.11185 2.89368,1.20905 3.78168,2.21958 4.26458,4.85293 0.3355,1.82925 0.4748,42.47591 0.3096,90.32591 -0.2815,81.52294 -0.4136,87.20731 -2.0983,90.29296 -0.9888,1.81113 -2.93058,3.72363 -4.31508,4.25 -3.3942,1.29046 -22.5937,1.21524 -29.9534,-0.11735 -12.7157,-2.30239 -15.1581,-6.3136 -23.0321,-37.82683 -2.9682,-11.87933 -11.2489,-45.15806 -18.4015,-73.95274 -7.1527,-28.79468 -13.73238,-53.88706 -14.62155,-55.76084 -1.6693,-3.51779 -3.05567,-4.16609 -9.8785,-4.61942 l -4,-0.26578 -0.23979,85 -0.23979,85 -2.121,1.75 c -3.0467,2.51379 -12.85725,2.41464 -16.03864,-0.16209 z"
         id="path3929"
         inkscape:connector-curvature="0"
         inkscape:export-xdpi="390.81299"
         inkscape:export-ydpi="390.81299" />
      <path
         style="fill:#000000;fill-opacity:1"
         d="m -20.419806,487.63653 -2.36079,-1.91201 v -88.83799 c 0,-73.62159 0.23823,-89.40273 1.39086,-92.13514 2.29094,-5.43092 5.8139,-6.56887 19.9135903,-6.43229 13.9024997,0.13466 22.0009797,1.94396 25.8271197,5.7701 4.86674,4.86675 4.45389,3.3945 27.400381,97.70934 3.44569,14.1625 6.59798,25.75 7.00509,25.75 0.40711,0 3.31597,-10.6875 6.46412,-23.75 14.22503,-59.02326 21.5155,-88.05128 23.04327,-91.75 4.52891,-10.96442 10.27434,-13.5323 30.720355,-13.7302 14.52267,-0.14057 17.79293,1.00355 19.90193,6.96281 1.07256,3.03067 1.33329,21.0422 1.33329,92.10545 v 88.33806 l -2.36078,1.91194 c -3.66758,2.97027 -12.47654,2.66553 -15.68467,-0.54261 l -2.45455,-2.45454 v -84.67429 -84.67428 l -5.17297,0.68622 c -7.16351,0.95027 -8.4337,1.85954 -10.21433,7.31192 -0.8549,2.61774 -9.250435,35.35952 -18.656745,72.75952 -9.40631,37.4 -17.74104,68.99147 -18.52161,70.20327 -2.73305,4.24293 -14.13823,4.24293 -16.86591,0 -0.77903,-1.2118 -9.1098,-32.80327 -18.512811,-70.20327 -9.40301,-37.4 -17.7998,-70.14178 -18.65954,-72.75952 -1.79098,-5.45324 -3.0614,-6.36188 -10.2231197,-7.31192 l -5.17297,-0.68622 v 84.67428 84.67429 l -2.45454,2.45454 c -3.20819,3.20819 -12.0171503,3.51289 -15.6846703,0.54254 z m 220.889896,1.27368 c -0.96212,-0.27943 -1.99001,-1.48762 -2.28418,-2.68486 -0.29418,-1.19725 -0.40698,-38.17681 -0.25068,-82.17681 l 0.28418,-80 2.45723,-5 c 5.04113,-10.25772 16.0356,-18.28009 30.04277,-21.92139 9.9572,-2.58847 36.0755,-3.23941 47.78518,-1.19095 16.96869,2.96847 28.413,10.20734 33.94435,21.47084 l 2.77047,5.6415 0.27261,81.71213 0.27261,81.71214 -2.52973,1.65754 c -3.51712,2.30451 -14.19302,1.57968 -16.14987,-1.09647 -1.09311,-1.49493 -1.36562,-8.91338 -1.36562,-37.17647 v -35.30887 h -38.96397 -38.96396 l -0.28604,35.95108 c -0.21603,27.15331 -0.59261,36.25739 -1.53881,37.20279 -1.27433,1.27322 -12.3098,2.13333 -15.49654,1.2078 z m 95.24558,-126.61167 c -0.004,-32.2721 -0.11711,-34.43593 -1.96691,-37.46975 -5.23365,-8.5836 -16.41615,-12.3682 -36.60165,-12.38742 -21.31941,-0.0203 -32.16699,3.39342 -37.00256,11.64471 l -2.42514,4.13818 v 34.16214 34.16214 h 39 39 l -0.004,-34.25 z m 105.45829,124.79545 -2.45455,-2.45454 v -84.54546 -84.54545 h -22.96482 c -26.45459,0 -25.36849,0.42646 -24.83431,-9.75132 0.25831,-4.9215 0.64028,-5.87302 2.79913,-6.97287 1.95214,-0.99454 14.38095,-1.21911 56.71484,-1.02473 62.01116,0.28472 57.57087,-0.42122 57.57087,9.1529 0,8.86634 0.79848,8.59602 -25.39159,8.59602 h -22.86099 l -0.26657,85.08856 -0.26656,85.08857 -2.36078,1.91143 c -3.66787,2.96973 -12.47686,2.66471 -15.68467,-0.54311 z m 129,0 -2.45455,-2.45454 v -84.54546 -84.54545 h -22.87756 c -26.20864,0 -25.40815,0.27082 -25.40815,-8.59602 0,-9.60605 -4.64438,-8.90398 58.90204,-8.90398 63.21074,0 58.38367,-0.724 58.38367,8.75687 0,9.13017 1.10352,8.74313 -24.92819,8.74313 -19.92086,0 -22.93582,0.20325 -23.46482,1.58179 -0.33385,0.86998 -0.60699,39.31946 -0.60699,85.44329 v 83.86151 l -2.22251,1.55671 c -1.33577,0.93561 -4.34623,1.5567 -7.54545,1.5567 -4.31819,0 -5.78627,-0.46332 -7.77749,-2.45455 z m 104.54545,-0.37878 c 0,-1.55834 0.27546,-3.1088 0.61214,-3.44548 0.33668,-0.33668 0.53836,-21.45091 0.44818,-46.92051 -0.14537,-41.05433 0.0236,-46.7574 1.48966,-50.26606 1.39082,-3.32869 1.68187,-8.49342 1.8313,-32.49616 0.17172,-27.5847 0.26754,-28.86779 2.86704,-38.39274 6.89515,-25.26479 13.77197,-22.98864 19.79173,6.55083 1.82819,8.97106 2.06778,13.38523 1.91484,35.27876 -0.14939,21.38587 0.0669,25.58353 1.48752,28.8679 1.47909,3.41959 1.6442,8.95982 1.49796,50.26259 -0.12295,34.72535 0.13659,46.782 1.03025,47.8588 0.65704,0.79169 0.90211,2.36102 0.54461,3.48741 -0.62034,1.95453 -1.39992,2.04799 -17.08262,2.04799 h -16.43261 z m 31,-0.16667 c 0,-0.62069 -5.5,-1 -14.5,-1 -9,0 -14.5,0.37931 -14.5,1 0,0.62069 5.5,1 14.5,1 9,0 14.5,-0.37931 14.5,-1 z m -3,-6 c 0,-0.6087 -4.5,-1 -11.5,-1 -7,0 -11.5,0.3913 -11.5,1 0,0.6087 4.5,1 11.5,1 7,0 11.5,-0.3913 11.5,-1 z m 1.5,-46.5 v -41 h -13 -13 l -0.26169,39.99834 c -0.14393,21.99908 -0.0404,40.57509 0.23013,41.28002 0.37242,0.9705 3.59234,1.2137 13.2617,1.00167 l 12.76986,-0.28003 z m -22.5,16 c 0,-15.66667 0.36054,-24.5 1,-24.5 0.63946,0 1,8.83333 1,24.5 0,15.66667 -0.36054,24.5 -1,24.5 -0.63946,0 -1,-8.83333 -1,-24.5 z m 0,-38.5 c 0,-5.33333 0.40741,-9 1,-9 0.59259,0 1,3.66667 1,9 0,5.33333 -0.40741,9 -1,9 -0.59259,0 -1,-3.66667 -1,-9 z m 20.81805,-25.5 c -1.10642,-2.42833 -1.4309,-2.5 -11.31805,-2.5 -9.88715,0 -10.21163,0.0717 -11.31805,2.5 l -1.13907,2.5 h 12.45712 12.45712 z m -6.06805,-7.23504 c -2.6125,-0.206 -6.8875,-0.206 -9.5,0 -2.6125,0.206 -0.475,0.37454 4.75,0.37454 5.225,0 7.3625,-0.16854 4.75,-0.37454 z m 4.25,-7.76496 v -3.5 h -9.5 -9.5 v 3.5 3.5 h 9.5 9.5 z m 0,-23 v -15.5 h -9.5 -9.5 v 15.5 15.5 h 9.5 9.5 z m -16.36052,13.80615 c -0.35171,-0.35172 -0.63948,-3.26448 -0.63948,-6.47282 0,-4.51851 0.3381,-5.83333 1.5,-5.83333 1.16501,0 1.5,1.32678 1.5,5.94098 0,5.54881 -0.85943,7.86626 -2.36052,6.36517 z m -0.63948,-20.80615 c 0,-2.48889 0.40152,-3.53282 1.25,-3.25 0.6875,0.22917 1.25,1.69167 1.25,3.25 0,1.55834 -0.5625,3.02084 -1.25,3.25 -0.84848,0.28283 -1.25,-0.76111 -1.25,-3.25 z m 16.54,-14.75 c -3.95359,-17.85902 -6.72104,-25.75 -9.0308,-25.75 -2.22107,0 -5.9065,10.77925 -8.97488,26.25 -0.31087,1.56744 0.63619,1.75 9.07835,1.75 9.25544,0 9.41645,-0.0406 8.92733,-2.25 z m 19.15052,162.60719 c -0.85535,-0.85536 -0.90953,-4.80485 -0.0773,-5.63705 0.33726,-0.33726 0.53836,-21.33085 0.44689,-46.65241 -0.16057,-44.45462 -0.0956,-46.19895 1.88681,-50.68059 1.90699,-4.31107 2.0531,-6.58026 2.0531,-31.88603 0,-25.69934 0.14051,-27.79855 2.47719,-37.01005 1.36246,-5.37096 3.40814,-11.68845 4.54595,-14.03887 4.88615,-10.09344 9.51486,-5.61183 14.49967,14.03887 2.33666,9.2115 2.47717,11.31071 2.47717,37.01005 0,25.30577 0.14611,27.57496 2.0531,31.88603 1.98066,4.47761 2.04806,6.25518 1.91005,50.37712 -0.0787,25.15466 0.16048,46.49695 0.53147,47.42733 0.37099,0.93037 0.51825,2.50537 0.32724,3.5 -0.31516,1.64109 -1.83201,1.83375 -16.39405,2.08227 -8.82572,0.15062 -16.3575,-0.0369 -16.73729,-0.41667 z m 30.30948,-2.35719 c 0,-0.61905 -5.33333,-1 -14,-1 -8.66667,0 -14,0.38095 -14,1 0,0.61905 5.33333,1 14,1 8.66667,0 14,-0.38095 14,-1 z m -2,-6 c 0,-0.61111 -4.66667,-1 -12,-1 -7.33333,0 -12,0.38889 -12,1 0,0.61111 4.66667,1 12,1 7.33333,0 12,-0.38889 12,-1 z m 1,-46.5 v -41.5 h -13 -13 v 41.5 41.5 h 13 13 z m -22.36052,39.80615 c -0.35171,-0.35172 -0.63948,-11.36448 -0.63948,-24.47282 0,-20.51852 0.20862,-23.83333 1.5,-23.83333 1.29156,0 1.5,3.32678 1.5,23.94098 0,21.72708 -0.4415,26.28419 -2.36052,24.36517 z m 0,-54 c -0.35171,-0.35172 -0.63948,-4.38948 -0.63948,-8.97282 0,-6.74074 0.28667,-8.33333 1.5,-8.33333 1.21486,0 1.5,1.60455 1.5,8.44098 0,7.766 -0.7275,10.49819 -2.36052,8.86517 z m 21.36052,-31.87189 c 0,-0.31116 -0.46583,-1.43616 -1.03518,-2.5 -0.91676,-1.71298 -2.17114,-1.93426 -10.96482,-1.93426 -8.79368,0 -10.04806,0.22128 -10.96482,1.93426 -0.56935,1.06384 -1.03518,2.18884 -1.03518,2.5 0,0.31116 5.4,0.56574 12,0.56574 6.6,0 12,-0.25458 12,-0.56574 z m -7.25,-9.1693 c -2.6125,-0.206 -6.8875,-0.206 -9.5,0 -2.6125,0.206 -0.475,0.37454 4.75,0.37454 5.225,0 7.3625,-0.16854 4.75,-0.37454 z m 5.06336,-8.01496 0.31336,-3.25 h -9.56336 -9.56336 v 3.53753 3.53752 l 9.25,-0.28752 9.25,-0.28753 z m -0.31336,-22.75 v -15 l -9.25,-0.28752 -9.25,-0.28753 v 15.57505 15.57505 l 9.25,-0.28752 9.25,-0.28753 z m -16.5,8 c 0,-3.66666 0.4359,-6.5 1,-6.5 0.5641,0 1,2.83334 1,6.5 0,3.66667 -0.4359,6.5 -1,6.5 -0.5641,0 -1,-2.83333 -1,-6.5 z m 0,-15 c 0,-1.925 0.45,-3.5 1,-3.5 0.55,0 1,1.575 1,3.5 0,1.925 -0.45,3.5 -1,3.5 -0.55,0 -1,-1.575 -1,-3.5 z m 16,-13.87177 c 0,-0.75448 -1.08525,-5.64995 -2.41166,-10.87884 -2.5074,-9.88446 -4.96084,-15.74939 -6.58834,-15.74939 -1.6275,0 -4.08094,5.86493 -6.58834,15.74939 -1.32641,5.22889 -2.41166,10.12436 -2.41166,10.87884 0,1.06075 2.04056,1.37177 9,1.37177 6.95944,0 9,-0.31102 9,-1.37177 z m 19,159.53844 c 0,-1.55834 0.27546,-3.1088 0.61214,-3.44548 0.33668,-0.33668 0.53836,-21.45091 0.44818,-46.92051 -0.14745,-41.6434 0.008,-46.71093 1.54139,-50.30452 1.4791,-3.46598 1.67484,-7.33203 1.47536,-29.13988 -0.15651,-17.10975 0.11395,-25.3563 0.84646,-25.80902 0.64563,-0.39902 1.07647,-4.44389 1.07647,-10.10627 v -9.44099 h 10.5 10.5 v 9.44099 c 0,5.66238 0.43084,9.70725 1.07647,10.10627 0.73251,0.45272 1.00297,8.69927 0.84646,25.80902 -0.19948,21.80785 -0.004,25.6739 1.47536,29.13988 1.53357,3.59359 1.68884,8.66112 1.54139,50.30452 -0.0902,25.4696 0.1115,46.58383 0.44818,46.92051 0.33668,0.33668 0.61214,1.88714 0.61214,3.44548 v 2.83333 h -16.5 -16.5 z m 31,-0.16667 c 0,-0.62069 -5.5,-1 -14.5,-1 -9,0 -14.5,0.37931 -14.5,1 0,0.62069 5.5,1 14.5,1 9,0 14.5,-0.37931 14.5,-1 z m -3,-6 c 0,-0.6087 -4.5,-1 -11.5,-1 -7,0 -11.5,0.3913 -11.5,1 0,0.6087 4.5,1 11.5,1 7,0 11.5,-0.3913 11.5,-1 z m 1.5,-46.5 v -41 h -13 -13 l -0.26169,39.99834 c -0.14393,21.99908 -0.0404,40.57509 0.23013,41.28002 0.37242,0.9705 3.59234,1.2137 13.2617,1.00167 l 12.76986,-0.28003 z m -22.5,16 c 0,-15.66667 0.36054,-24.5 1,-24.5 0.63946,0 1,8.83333 1,24.5 0,15.66667 -0.36054,24.5 -1,24.5 -0.63946,0 -1,-8.83333 -1,-24.5 z m 0,-38.5 c 0,-5.33333 0.40741,-9 1,-9 0.59259,0 1,3.66667 1,9 0,5.33333 -0.40741,9 -1,9 -0.59259,0 -1,-3.66667 -1,-9 z m 20.81805,-25.5 c -1.10642,-2.42833 -1.4309,-2.5 -11.31805,-2.5 -9.88715,0 -10.21163,0.0717 -11.31805,2.5 l -1.13907,2.5 h 12.45712 12.45712 z m -7.06805,-7.23504 c -2.6125,-0.206 -6.8875,-0.206 -9.5,0 -2.6125,0.206 -0.475,0.37454 4.75,0.37454 5.225,0 7.3625,-0.16854 4.75,-0.37454 z m 5.25,-7.76496 v -3.5 h -9.5 -9.5 v 3.5 3.5 h 9.5 9.5 z m 0,-23 v -15.5 h -9.5 -9.5 v 15.5 15.5 h 9.5 9.5 z m -11.52707,9.4562 c -0.35481,-0.5741 -0.0903,-1.71229 0.58775,-2.52932 1.00112,-1.20627 0.84614,-1.90294 -0.82448,-3.70619 -2.24266,-2.42071 -3.29322,-6.22069 -1.71981,-6.22069 0.54098,0 0.88425,0.74331 0.7628,1.65179 -0.12144,0.90848 0.48682,2.23906 1.3517,2.95684 1.40887,1.16926 1.53591,0.59339 1.22081,-5.53387 -0.19912,-3.87195 0.0624,-6.89009 0.60281,-6.95684 0.53407,-0.066 0.82727,2.27933 0.66565,5.32454 -0.25772,4.85561 -0.11907,5.30153 1.28582,4.13557 1.0544,-0.87507 1.36605,-2.13815 0.94322,-3.82283 -0.47342,-1.88628 0.31443,-1.93051 1.3574,-1.57564 1.8709,0.63657 0.60075,4.29507 -1.79603,6.88489 -2.13299,2.30479 -2.48519,5.46093 -0.7977,7.14842 0.61207,0.61207 0.81052,1.60207 0.44098,2.2 -0.85404,1.38187 -3.23802,1.40718 -4.08092,0.0433 z m 10.31913,-36.2062 0.29207,-7.75 h -8.54207 -8.54206 v 8.04045 8.04044 l 8.25,-0.29044 8.25,-0.29045 z m -15.29206,3.25 c -0.9233,-1.49393 0.36137,-3 2.55902,-3 1.27431,0 1.94098,0.68694 1.94098,2 0,2.12106 -3.34741,2.86493 -4.5,1 z m 9.5,-1 c 0,-1.64634 0.51831,-2.06549 2.25,-1.81955 1.2375,0.17576 2.25,0.99455 2.25,1.81955 0,0.825 -1.0125,1.6438 -2.25,1.81955 -1.73169,0.24594 -2.25,-0.1732 -2.25,-1.81955 z m 77,164.7623 -2.5,-1.32126 -0.25543,-88.84351 c -0.17042,-59.2785 0.0914,-90.13146 0.78675,-92.71384 1.65515,-6.14674 4.85176,-7.26314 20.33445,-7.10168 13.30237,0.13872 21.07884,1.72179 25.03528,5.09647 4.342,3.70351 7.8323,15.61413 25.6309,87.46417 12.2952,49.63352 18.9814,74.86528 20.3943,76.9619 2.2145,3.28604 7.1428,5.097 11.3238,4.16104 l 2.25,-0.50369 v -84.48095 c 0,-83.14761 0.032,-84.51251 2,-86.48095 1.5822,-1.58224 3.3054,-1.99335 8.25,-1.96819 11.39678,0.058 10.24998,-10.26469 10.24998,92.26163 0,101.36649 0.4565,95.55151 -7.67438,97.76783 -5.2745,1.43775 -27.5378,0.63861 -33.1355,-1.1894 -4.8965,-1.59904 -8.94,-6.25105 -11.5903,-13.33445 -1.1578,-3.09458 -9.0832,-33.84397 -17.6119,-68.33197 -24.03321,-97.18381 -21.21218,-88.56724 -29.36355,-89.68834 -2.76773,-0.38066 -5.50297,-0.40117 -6.07831,-0.0456 -0.71473,0.44172 -1.04609,27.33406 -1.04609,84.89637 0,69.62583 -0.23704,84.57403 -1.36562,86.11745 -1.75303,2.39741 -11.94001,3.22945 -15.63438,1.27696 z"
         id="path3927"
         inkscape:connector-curvature="0"
         sodipodi:nodetypes="ccscscssscsssccccccscsscscscccscscscsssscccccscccscscssscccccccccccscsssscccscccccssssscscsscssscsssscsssscsssssssssssccccscsccsssssssssscscccccsssscccccccccccccccccccssscssssscscscccscscccsssccscssssssssssccccccccccsssccssscsssssssssssccccccccccccccccccssssssssssscscsssssscssscccssscssscccsssssssssssccccscsccsssssssssscscccccssssccccccccccccccccccccsscssccscssssccccccccccccsscsssssscscscscccscssccccscscs"
         inkscape:export-xdpi="390.81299"
         inkscape:export-ydpi="390.81299" />
      <path
         style="fill:#000000;fill-opacity:1"
         d="m -19.280596,488.25404 -2.5,-1.26501 v -90.97025 c 0,-71.59472 0.26986,-91.44222 1.26701,-93.18627 1.98626,-3.47405 8.1209,-4.57959 22.2329903,-4.00667 23.4752697,0.95304 25.4017797,2.9542 33.0299697,34.30972 2.26303,9.30214 7.407571,30.41298 11.432321,46.91298 4.02475,16.5 8.12225,33.47792 9.10555,37.72871 2.9682,12.83152 3.89612,12.83152 6.86432,0 0.9833,-4.25079 5.0808,-21.22871 9.10555,-37.72871 4.02475,-16.5 9.16929,-37.61084 11.43232,-46.91298 4.80894,-19.76706 7.07471,-25.5411 11.57194,-29.48972 4.29435,-3.77049 13.911325,-5.43994 28.467075,-4.94173 12.19488,0.4174 14.21667,1.39723 15.97977,7.74434 0.63171,2.27415 1.00209,36.05832 1.00561,91.72765 0.005,78.64147 -0.16241,88.26697 -1.55504,89.42275 -2.23171,1.85216 -11.42562,2.30585 -14.43938,0.71255 l -2.5,-1.3217 -0.5,-85.47058 -0.5,-85.47058 -6,0.21051 c -7.11986,0.2498 -8.56332,1.55559 -11.0053,9.95571 -1.40964,4.84901 -11.938045,46.35875 -29.564385,116.5619 -2.72429,10.85047 -5.47222,20.86711 -6.1065,22.25921 -2.63588,5.78513 -15.3089,5.61222 -17.71182,-0.24166 -1.215,-2.95994 -1.74831,-5.02819 -21.148021,-82.01477 -7.10557,-28.198 -13.63149,-53.71924 -14.50205,-56.71387 -2.39625,-8.2428 -3.86591,-9.55755 -10.9619297,-9.80652 l -6,-0.21051 -0.5,85.47058 -0.5,85.47058 -2.5,1.26468 c -3.20954,1.62361 -9.7909903,1.62344 -13.0000003,-3.4e-4 z m 220.000006,0.057 -2.5,-1.32201 V 405.51876 324.0485 l 2.68667,-5.09177 c 5.43574,-10.30183 17.30926,-18.65559 31.17922,-21.93654 16.27642,-3.85019 46.09968,-2.70321 58.63411,2.25503 11.87164,4.69607 17.29975,9.3945 21.69222,18.77623 l 2.80778,5.99709 0.27265,81.10876 c 0.30311,90.17156 0.86444,83.09372 -6.67009,84.10431 -5.4041,0.72484 -10.73059,-0.40347 -11.75601,-2.49027 -0.4656,-0.94754 -1.07155,-17.6978 -1.34655,-37.2228 l -0.5,-35.5 h -38.5 -38.5 l -0.5,35.71564 c -0.44601,31.85893 -0.68349,35.89898 -2.19923,37.41352 -2.21375,2.21198 -11.42692,2.91749 -14.80077,1.13338 z m 95,-126.53041 v -34.76786 l -2.53753,-3.7343 c -5.26251,-7.74444 -16.76858,-11.23597 -36.96247,-11.21626 -20.41113,0.0199 -31.55771,3.61278 -36.5353,11.77636 -1.84363,3.02367 -1.95744,5.22685 -1.96096,37.95997 l -0.004,34.75 h 39 39 v -34.76787 z m 107,126.47376 -2.5,-1.26462 -0.51404,-85.47064 c -0.28273,-47.0088 -0.62023,-85.58309 -0.75,-85.72059 -0.12978,-0.1375 -10.57013,-0.25 -23.20078,-0.25 -26.08301,0 -25.03518,0.35577 -25.03518,-8.5 0,-9.30059 -5.50996,-8.5 58.5,-8.5 64.12541,0 58.5,-0.84074 58.5,8.74313 0,8.41851 0.64975,8.202 -25.5,8.49722 l -23,0.25965 -0.5,85.47058 -0.5,85.47058 -2.5,1.26468 c -3.20923,1.62346 -9.79069,1.62348 -13,5e-5 z m 129,0.057 -2.5,-1.32164 -0.51404,-85.47064 c -0.28273,-47.00878 -0.62023,-85.58307 -0.75,-85.72057 -0.12978,-0.1375 -10.57013,-0.25 -23.20078,-0.25 -26.08301,0 -25.03518,0.35577 -25.03518,-8.5 0,-9.29743 -5.43789,-8.5 57.96376,-8.5 63.49966,0 59.03624,-0.63359 59.03624,8.3803 0,8.83027 0.76778,8.5635 -25.5,8.86005 l -23,0.25965 -0.5,85.20026 c -0.38117,64.95087 -0.78872,85.48892 -1.71481,86.41481 -1.78478,1.7844 -11.31752,2.21671 -14.28519,0.64784 z m 103.66667,0.57042 c -0.83655,-0.83654 -0.87423,-4.79244 -0.0535,-5.61319 0.33726,-0.33726 0.53861,-21.26062 0.44746,-46.49636 -0.15939,-44.12672 -0.0872,-46.08249 1.8868,-51.09049 1.89139,-4.79848 2.05254,-7.33421 2.05254,-32.29652 0,-24.10376 0.23445,-28.09471 2.12733,-36.21298 2.35182,-10.08659 5.88277,-18.02995 8.45303,-19.01625 3.70551,-1.42194 6.84184,4.3817 10.27846,19.01981 1.91024,8.13654 2.14355,12.07296 2.16314,36.49644 0.0203,25.34747 0.17239,27.70784 2.0519,31.85133 1.95454,4.30891 2.02384,6.1959 1.8659,50.80453 -0.0902,25.48117 0.11142,46.60486 0.4481,46.94154 0.33668,0.33668 0.61214,1.88714 0.61214,3.44548 v 2.83333 h -15.83333 c -8.70834,0 -16.13334,-0.3 -16.5,-0.66667 z m 30.08333,-2.58327 c -0.30656,-0.91968 -4.07222,-1.25 -14.25,-1.25 -10.17778,0 -13.94344,0.33032 -14.25,1.25 -0.32071,0.96212 2.96111,1.25 14.25,1.25 11.28889,0 14.57071,-0.28788 14.25,-1.25 z m -1.75,-5.75 c 0,-0.61358 -4.85301,-1 -12.55902,-1 -8.11803,0 -12.34047,0.35361 -11.94098,1 0.35619,0.57633 5.67705,1 12.55902,1 7.29399,0 11.94098,-0.38916 11.94098,-1 z m 1,-46.5 v -41.5 h -13.5 -13.5 v 41.5 41.5 h 13.5 13.5 z m -23,15.5 c 0,-15.33333 0.36111,-24 1,-24 0.63889,0 1,8.66667 1,24 0,15.33333 -0.36111,24 -1,24 -0.63889,0 -1,-8.66667 -1,-24 z m 0.66667,-29.66667 c -1.08901,-1.089 -0.77662,-17.33333 0.33333,-17.33333 0.59259,0 1,3.66667 1,9 0,9.00959 -0.0906,9.57604 -1.33333,8.33333 z m 20.62678,-30.96011 c 0.34473,-0.34474 -0.0418,-1.91974 -0.85901,-3.5 -1.46514,-2.83327 -1.60709,-2.87301 -10.21012,-2.85791 -4.79838,0.008 -9.21945,0.34592 -9.82462,0.75 -1.60592,1.07231 -3.43335,4.86771 -2.69785,5.60321 0.82126,0.82125 22.77067,0.82563 23.5916,0.005 z m -6.50993,-10.10689 c -2.59406,-0.20525 -7.09406,-0.20738 -10,-0.005 -2.90594,0.20264 -0.78352,0.37057 4.71648,0.37317 5.5,0.003 7.87758,-0.16319 5.28352,-0.36844 z m 4.21648,-7.76633 v -3.5 h -9.5 -9.5 v 3.5 3.5 h 9.5 9.5 z m 0,-23 v -15.5 h -9.5 -9.5 v 15.5 15.5 h 9.5 9.5 z m -16.52703,13.29016 c -0.92146,-2.40129 -0.0929,-11.31857 1.02703,-11.05328 1.36095,0.32238 1.86929,10.29383 0.58999,11.57313 -0.69923,0.69923 -1.21254,0.53422 -1.61702,-0.51985 z m -0.0248,-18.06453 c -0.79578,-2.07377 -0.23065,-4.77558 1.05179,-5.02845 1.39406,-0.27488 1.9001,4.30272 0.61745,5.58538 -0.73585,0.73584 -1.23737,0.56851 -1.66924,-0.55693 z m 15.73121,-17.72563 c -0.46541,-5.08065 -4.06721,-18.8824 -5.80432,-22.2416 -2.28484,-4.41839 -4.53591,-3.16679 -7.06472,3.92802 -2.59483,7.28004 -5.4246,20.31969 -4.6734,21.53515 0.29025,0.46965 4.42818,0.72442 9.1954,0.56617 l 8.66766,-0.28774 z m 19.51114,163.35719 c -1.18889,-1.1889 -0.75529,-4.05855 0.80948,-5.35719 1.69604,-1.40759 2.0157,-5.56324 0.5,-6.5 -0.64148,-0.39646 -1,-15.97398 -1,-43.44981 0,-40.5374 0.10596,-43.06529 1.97804,-47.19099 1.80837,-3.98529 1.9807,-6.63225 2.00906,-30.8592 0.0285,-24.34146 0.22758,-27.36645 2.44412,-37.13725 2.44296,-10.7689 5.1301,-17.42386 7.99569,-19.80209 3.43684,-2.85232 7.41386,4.02714 11.0828,19.17107 2.33123,9.62241 2.48916,11.96653 2.51096,37.26827 0.0213,24.73498 0.18919,27.36569 2.00129,31.3592 1.8703,4.12176 1.97804,6.65077 1.97804,46.42901 0,30.85852 -0.32891,42.97937 -1.23421,45.48295 -1.08658,3.00489 -1.01719,3.57185 0.58018,4.73987 1.08665,0.79458 1.68196,2.26171 1.48421,3.65784 -0.32828,2.31775 -0.42235,2.3327 -16.38966,2.60499 -8.83271,0.15062 -16.37021,-0.0369 -16.75,-0.41667 z m 30.56297,-2.85719 c -0.26938,-1.09274 -23.25112,-1.95077 -27.04439,-1.00971 -1.25999,0.31259 -2.01343,1.0173 -1.6743,1.56602 0.83275,1.34741 29.05322,0.80075 28.71869,-0.55631 z m -2.25349,-5.5 c 0,-0.61111 -4.66667,-1 -12,-1 -7.33333,0 -12,0.38889 -12,1 0,0.61111 4.66667,1 12,1 7.33333,0 12,-0.38889 12,-1 z m 1,-46.5 v -41.5 h -13 -13 v 41.5 41.5 h 13 13 z m -22,16.05902 c 0,-15.70601 0.36048,-24.55902 1,-24.55902 0.63882,0 1,8.64699 1,23.94098 0,14.88197 -0.37839,24.17484 -1,24.55902 -0.6563,0.40561 -1,-7.82295 -1,-23.94098 z m 0,-38.5 c 0,-5.37268 0.40692,-9.05902 1,-9.05902 0.58769,0 1,3.48033 1,8.44098 0,4.64254 -0.45,8.7191 -1,9.05902 -0.63856,0.39465 -1,-2.65628 -1,-8.44098 z m 21,-23.98759 c 0,-3.95971 -2.60148,-5.07239 -11.82143,-5.05612 -4.77321,0.008 -9.20539,0.35043 -9.84929,0.76002 -0.64389,0.40959 -1.48017,1.9777 -1.8584,3.48469 l -0.6877,2.73998 H 695.611 c 11.29226,0 12.10841,-0.12999 12.10841,-1.92857 z m -7.25,-8.80647 c -2.6125,-0.206 -6.8875,-0.206 -9.5,0 -2.6125,0.206 -0.475,0.37454 4.75,0.37454 5.225,0 7.3625,-0.16854 4.75,-0.37454 z m 5.25,-7.76496 v -3.5 h -10 -10 v 3.5 3.5 h 10 10 z m 0,-23 v -15.5 h -10 -10 v 15.5 15.5 h 10 10 z m -17,8 c 0,-3.66666 0.4359,-6.5 1,-6.5 0.5641,0 1,2.83334 1,6.5 0,3.66667 -0.4359,6.5 -1,6.5 -0.5641,0 -1,-2.83333 -1,-6.5 z m 0,-15 c 0,-1.925 0.45,-3.5 1,-3.5 0.55,0 1,1.575 1,3.5 0,1.925 -0.45,3.5 -1,3.5 -0.55,0 -1,-1.575 -1,-3.5 z m 16,-13.80961 c 0,-3.31332 -3.95175,-18.56059 -5.88084,-22.69039 -3.21423,-6.88103 -6.14167,-3.38422 -9.99619,11.94039 -3.42569,13.61967 -3.7206,13.05961 6.87703,13.05961 8.73549,0 9,-0.0679 9,-2.30961 z m 19,159.50105 c 0,-1.57196 0.27546,-3.13357 0.61214,-3.47025 0.33668,-0.33668 0.53833,-21.46037 0.4481,-46.94154 -0.15794,-44.60863 -0.0886,-46.49562 1.8659,-50.80453 1.82511,-4.02356 2.03252,-6.54366 2.05556,-24.97512 0.0141,-11.275 0.31897,-26.9125 0.67751,-34.75 l 0.65189,-14.25 h 10.1889 10.1889 l 0.65189,14.25 c 0.35854,7.8375 0.66342,23.475 0.67751,34.75 0.023,18.43146 0.23045,20.95156 2.05556,24.97512 1.95284,4.30516 2.02457,6.22318 1.88864,50.5 -0.0777,25.31369 0.16199,46.78609 0.53267,47.71647 0.37069,0.93037 0.5177,2.50537 0.32669,3.5 -0.31538,1.64226 -1.83912,1.83366 -16.58458,2.08318 l -16.23728,0.27477 z m 30.75,-0.44144 c -0.30656,-0.91968 -4.07222,-1.25 -14.25,-1.25 -10.17778,0 -13.94344,0.33032 -14.25,1.25 -0.32071,0.96212 2.96111,1.25 14.25,1.25 11.28889,0 14.57071,-0.28788 14.25,-1.25 z m -1.75,-5.75 c 0,-0.61333 -4.83333,-1 -12.5,-1 -7.66667,0 -12.5,0.38667 -12.5,1 0,0.61333 4.83333,1 12.5,1 7.66667,0 12.5,-0.38667 12.5,-1 z m 1,-46.5 v -41.5 h -13.5 -13.5 v 41.5 41.5 h 13.5 13.5 z m -22.33333,39.83333 c -1.11575,-1.11574 -0.79011,-48.33333 0.33333,-48.33333 0.63946,0 1,8.83333 1,24.5 0,13.475 -0.15,24.5 -0.33333,24.5 -0.18334,0 -0.63334,-0.3 -1,-0.66667 z m 0,-54 c -1.08901,-1.089 -0.77662,-17.33333 0.33333,-17.33333 0.59259,0 1,3.66667 1,9 0,9.00959 -0.0906,9.57604 -1.33333,8.33333 z m 20.63148,-30.96481 c 0.7355,-0.7355 -1.09193,-4.5309 -2.69785,-5.60321 -0.60517,-0.40408 -5.02624,-0.74158 -9.82462,-0.75 -8.60303,-0.0151 -8.74498,0.0246 -10.21012,2.85791 -0.81719,1.58026 -1.20374,3.15526 -0.85901,3.5 0.82093,0.82093 22.77034,0.81655 23.5916,-0.005 z m -6.51463,-10.10219 c -2.59406,-0.20525 -7.09406,-0.20738 -10,-0.005 -2.90594,0.20264 -0.78352,0.37057 4.71648,0.37317 5.5,0.003 7.87758,-0.16319 5.28352,-0.36844 z m 4.21648,-7.76633 v -3.5 h -9.5 -9.5 v 3.5 3.5 h 9.5 9.5 z m 0,-23 v -15.5 h -9.5 -9.5 v 15.5 15.5 h 9.5 9.5 z m -11.26443,9.90223 c -0.97315,-0.97314 0.36299,-3.40223 1.87142,-3.40223 0.76615,0 1.39301,0.9 1.39301,2 0,1.88258 -1.94753,2.71914 -3.26443,1.40223 z m -1.08058,-7.23097 c -1.8208,-2.01196 -2.24941,-6.17126 -0.63594,-6.17126 0.59415,0 0.75102,1.06795 0.37622,2.56125 -0.5172,2.06069 -0.22776,2.6698 1.48095,3.11664 1.16808,0.30545 2.12378,0.95289 2.12378,1.43874 0,1.45169 -1.57975,1.00522 -3.34501,-0.94537 z m 2.34501,-2.17126 c 0,-0.55 0.45,-1 1,-1 0.55,0 1,0.45 1,1 0,0.55 -0.45,1 -1,1 -0.55,0 -1,-0.45 -1,-1 z m 3.55666,-4.82536 c -626.87602,374.18293 -313.43801,187.09146 0,0 z m 5.44334,-22.17464 v -8 h -8.5 -8.5 v 8 8 h 8.5 8.5 z m -15,2 c 0,-1.50615 0.52215,-2.04609 1.75,-1.80963 0.9625,0.18536 1.75,0.9997 1.75,1.80963 0,0.80994 -0.7875,1.62427 -1.75,1.80963 -1.22785,0.23646 -1.75,-0.30348 -1.75,-1.80963 z m 9.5,1 c -0.83704,-1.35436 0.29243,-3 2.05902,-3 0.79254,0 1.44098,0.9 1.44098,2 0,2.07031 -2.41251,2.7596 -3.5,1 z m 77.52823,163.8868 c -1.35947,-0.54254 -2.81508,-1.52651 -3.23469,-2.18661 -1.01361,-1.59457 -0.89989,-171.82811 0.11893,-178.02527 1.41527,-8.60866 2.68152,-9.17791 20.36774,-9.15646 9.82252,0.0119 16.5319,0.47684 18.91981,1.31105 4.2616,1.48879 9.10983,6.59085 11.36293,11.95772 0.8572,2.04203 9.8626,37.11799 20.0119,77.94658 10.1493,40.82859 18.9846,75.39984 19.6339,76.82499 1.5271,3.35171 5.6521,5.4412 10.7416,5.4412 h 4.0497 l 0.014,-83.75 c 0.01,-46.0625 0.2706,-84.70764 0.5847,-85.8781 0.3141,-1.17045 1.6791,-2.63295 3.0334,-3.25 3.5745,-1.62866 11.5497,-1.38352 14.14568,0.43481 l 2.2225,1.5567 v 88.97541 c 0,94.02359 0.041,93.1476 -4.49978,96.91118 -1.426,1.18193 -4.7986,1.49072 -15.9049,1.45624 -20.5228,-0.0637 -25.8101,-2.17067 -30.1665,-12.02127 -1.2672,-2.86532 -7.532,-26.29787 -13.9218,-52.07232 -6.3898,-25.77446 -14.743,-59.46265 -18.56263,-74.86265 -3.96362,-15.98069 -7.73453,-29.06293 -8.78466,-30.47619 -2.03682,-2.74114 -4.77786,-3.77443 -10.40966,-3.92413 l -3.75,-0.0997 v 84.54545 84.54546 l -2.45455,2.45454 c -2.66252,2.66253 -8.70431,3.26207 -13.51722,1.34135 z"
         id="path3925"
         inkscape:connector-curvature="0"
         sodipodi:nodetypes="ccscssssssscssscccccsssccscscccccccccsssccsscscccsccccccssccccccccscssssscccsccccscssssscscccccscssssccssscscccscscssssscccccccccssssscssccccccccccccccccccccccccccccccccsscsscsccscscccccssssssscscccscccscssssscccccccccssscsssscssccccssssssccccccccccccccccccsssssssssssssssssscsscccsccscsscscscscsssssccccccccccsssccsscccsccccccccccccccccccccccccccccsscssccssssssscccccccccccsssssssssccssscscsccscccscscsccscccccc"
         inkscape:export-xdpi="390.81299"
         inkscape:export-ydpi="390.81299" />
      <path
         style="fill:#000000;fill-opacity:1"
         d="m 635.4105,488.9063 c -0.93208,-0.93208 -0.88341,-5.35789 0.0589,-5.35727 0.4125,2.7e-4 0.6092,-20.90836 0.43711,-46.46361 -0.30384,-45.11986 -0.25321,-46.59903 1.75,-51.12761 1.91649,-4.33253 2.06443,-6.58843 2.08453,-31.78639 0.0183,-22.9194 0.31638,-28.4555 1.92339,-35.72164 5.81212,-26.27955 13.2768,-26.38753 19.04973,-0.27554 1.67945,7.5965 1.96507,12.78608 1.9836,36.04139 0.0199,24.91694 0.18729,27.55355 2.02164,31.83291 1.89586,4.42287 2,6.88775 2,47.33951 0,23.47053 -0.41741,44.1291 -0.92757,45.90794 -0.72945,2.54346 -0.60334,3.41569 0.59047,4.08378 0.88649,0.4961 1.37639,1.85199 1.17757,3.25915 l -0.34046,2.40962 -15.55891,0.27442 c -8.5574,0.15094 -15.8699,-0.0366 -16.25,-0.41666 z m 30.30891,-2.85776 c 0,-1.26437 -2.27778,-1.5 -14.5,-1.5 -12.22222,0 -14.5,0.23563 -14.5,1.5 0,1.26437 2.27778,1.5 14.5,1.5 12.22222,0 14.5,-0.23563 14.5,-1.5 z m -2.25,-5.75 c -0.30203,-0.9061 -3.67222,-1.25 -12.25,-1.25 -8.57778,0 -11.94797,0.3439 -12.25,1.25 -0.31871,0.95614 2.56111,1.25 12.25,1.25 9.68889,0 12.56871,-0.29386 12.25,-1.25 z m 1.25,-46.25 v -41.5 h -13.5 -13.5 v 41.5 41.5 h 13.5 13.5 z m -23,15.5 c 0,-15.33333 0.36111,-24 1,-24 0.63889,0 1,8.66667 1,24 0,15.33333 -0.36111,24 -1,24 -0.63889,0 -1,-8.66667 -1,-24 z m 0,-38.5 c 0,-5 0.41176,-8.5 1,-8.5 0.58824,0 1,3.5 1,8.5 0,5 -0.41176,8.5 -1,8.5 -0.58824,0 -1,-3.5 -1,-8.5 z m 22,-22.77749 c 0,-0.70263 -0.70052,-2.27763 -1.5567,-3.5 -1.41933,-2.02637 -2.37927,-2.22251 -10.87756,-2.22251 -9.70791,0 -10.67135,0.38102 -12.01074,4.75 l -0.68978,2.25 h 12.56739 c 9.5315,0 12.56739,-0.3086 12.56739,-1.27749 z m -3,-9.72251 c 0,-0.59649 -3.83333,-1 -9.5,-1 -5.66667,0 -9.5,0.40351 -9.5,1 0,0.59649 3.83333,1 9.5,1 5.66667,0 9.5,-0.40351 9.5,-1 z m 0,-7.5 v -3.5 h -9.5 -9.5 v 3.5 3.5 h 9.5 9.5 z m 0,-22.5 v -16 h -9.5 -9.5 v 16 16 h 9.5 9.5 z m -15.67186,7.5 c 0.004,-3.85 0.18518,-5.30246 0.40166,-3.2277 0.21647,2.07477 0.21284,5.22477 -0.008,7 -0.22091,1.77524 -0.39803,0.0777 -0.39359,-3.7723 z m -0.076,-15 c 0.0111,-2.2 0.21589,-2.98225 0.45508,-1.73834 0.23919,1.24392 0.23011,3.04392 -0.0202,4 -0.25029,0.95609 -0.446,-0.0617 -0.4349,-2.26166 z m 15.72618,-12.75 c -0.11477,-6.62858 -6.40801,-26.66143 -8.84964,-28.17044 -2.41883,-1.49492 -7.584,11.98989 -9.64119,25.17044 l -0.66333,4.25 h 9.5879 c 7.0152,0 9.58209,-0.33541 9.56626,-1.25 z m 18.71216,160.60719 c -1.05347,-1.05347 -0.82349,-3.82422 0.4207,-5.06841 0.78819,-0.78819 1.06376,-14.78525 0.94794,-48.14898 -0.14486,-41.72875 0.0207,-47.39348 1.46656,-50.18953 1.37932,-2.66732 1.66162,-7.55559 1.8365,-31.80103 0.19935,-27.63919 0.30128,-28.99666 2.89106,-38.50352 3.31458,-12.16739 5.4836,-16.14572 8.80281,-16.14572 3.38311,0 6.29766,6.18741 9.43984,20.04013 2.30539,10.16367 2.48665,12.87048 2.49505,37.25953 0.008,21.80101 0.27455,26.81305 1.56113,29.30103 1.34529,2.60151 1.53035,9.25799 1.38903,49.96417 -0.12192,35.12151 0.13792,47.32542 1.03051,48.40094 0.65645,0.79096 1.03816,2.24724 0.84825,3.23616 -0.31259,1.62777 -1.86484,1.82397 -16.39205,2.0719 -8.82572,0.15062 -16.3575,-0.0369 -16.73729,-0.41667 z m 31.05952,-2.60719 c -0.30749,-0.92248 -4.17222,-1.25 -14.75,-1.25 -10.57778,0 -14.44251,0.32752 -14.75,1.25 -0.32112,0.96337 3.06111,1.25 14.75,1.25 11.68889,0 15.07112,-0.28663 14.75,-1.25 z m -3,-6 c -0.30065,-0.90196 -3.57222,-1.25 -11.75,-1.25 -8.17778,0 -11.44935,0.34804 -11.75,1.25 -0.31811,0.95434 2.46111,1.25 11.75,1.25 9.28889,0 12.06811,-0.29566 11.75,-1.25 z m 1.75,-46.25 v -41 h -13.5 -13.5 l -0.26169,39.99834 c -0.14393,21.99908 -0.0405,40.5747 0.2298,41.27916 0.37301,0.97203 3.69084,1.21353 13.7617,1.00167 l 13.27019,-0.27917 z m -22.06756,15.5 c 0,-13.475 0.14155,-18.9875 0.31456,-12.25 0.17301,6.7375 0.17301,17.7625 0,24.5 -0.17301,6.7375 -0.31456,1.225 -0.31456,-12.25 z m -0.0775,-38.5 c -0.003,-4.95 0.16605,-7.10108 0.37577,-4.78017 0.20972,2.3209 0.21222,6.3709 0.006,9 -0.20667,2.62909 -0.37827,0.73017 -0.38131,-4.21983 z m 20.93849,-22.12678 c 0.34473,-0.34474 -0.0418,-1.91974 -0.85901,-3.5 -1.48525,-2.87219 -1.48934,-2.87322 -11.43442,-2.87322 -9.94508,0 -9.94917,10e-4 -11.43444,2.87322 -0.81719,1.58026 -1.20374,3.15526 -0.85901,3.5 0.8181,0.8181 23.7688,0.8181 24.5869,0 z m -2.79343,-10.37322 c -0.33992,-0.55 -4.61492,-1 -9.5,-1 -4.88508,0 -9.16008,0.45 -9.5,1 -0.39647,0.6415 3.00929,1 9.5,1 6.49071,0 9.89647,-0.3585 9.5,-1 z m 0.5,-7.5 v -3.5 h -10 -10 v 3.5 3.5 h 10 10 z m -0.22461,-22.75 0.2754,-15.75 h -10.0254 -10.02539 v 15.33334 c 0,8.43333 0.31569,15.64901 0.70153,16.03485 0.38583,0.38584 4.77333,0.57334 9.75,0.41667 l 9.04847,-0.28486 z m -16.77539,7.25 c 0,-3.33333 0.44444,-6 1,-6 0.55556,0 1,2.66667 1,6 0,3.33333 -0.44444,6 -1,6 -0.55556,0 -1,-2.66667 -1,-6 z m 0,-14.5 c 0,-1.375 0.45,-2.5 1,-2.5 0.55,0 1,1.125 1,2.5 0,1.375 -0.45,2.5 -1,2.5 -0.55,0 -1,-1.125 -1,-2.5 z m 16.4351,-12.39498 c 0.74526,-1.20586 -3.78985,-18.85789 -6.30674,-24.54774 -1.10874,-2.5065 -2.47965,-4.55728 -3.04645,-4.55728 -2.78922,0 -10.0532,23.12522 -9.18787,29.25 0.1513,1.07088 17.87527,0.93229 18.54106,-0.14498 z M 724.4105,488.9063 c -1.22683,-1.22683 -0.73383,-5.12738 0.7185,-5.68469 1.09651,-0.42077 1.21286,-1.3885 0.52386,-4.35699 -0.48716,-2.09885 -0.89647,-22.79127 -0.90959,-45.98317 -0.0226,-39.97456 0.0801,-42.4097 1.97614,-46.83291 1.7845,-4.16306 2.00039,-6.89273 2.00366,-25.33291 0.002,-11.36689 0.29701,-27.07959 0.65555,-34.91709 l 0.65189,-14.25 h 10.1889 10.1889 l 0.65189,14.25 c 0.35854,7.8375 0.65354,23.5303 0.65555,34.87288 0.003,18.65395 0.20061,21.06812 2.06655,25.28639 2.00321,4.52858 2.05384,6.00775 1.75,51.12761 -0.17209,25.55525 0.0545,46.46388 0.50353,46.46361 0.44903,-2.7e-4 0.67403,1.23701 0.5,2.74951 l -0.31642,2.75 -15.55891,0.27442 c -8.5574,0.15094 -15.8699,-0.0366 -16.25,-0.41666 z m 30.30891,-2.85776 c 0,-1.26437 -2.27778,-1.5 -14.5,-1.5 -12.22222,0 -14.5,0.23563 -14.5,1.5 0,1.26437 2.27778,1.5 14.5,1.5 12.22222,0 14.5,-0.23563 14.5,-1.5 z m -2.25,-5.75 c -0.30203,-0.9061 -3.67222,-1.25 -12.25,-1.25 -8.57778,0 -11.94797,0.3439 -12.25,1.25 -0.31871,0.95614 2.56111,1.25 12.25,1.25 9.68889,0 12.56871,-0.29386 12.25,-1.25 z m 1.25,-46.25 v -41.5 h -13.5 -13.5 v 41.5 41.5 h 13.5 13.5 z m -23,15.5 c 0,-15.33333 0.36111,-24 1,-24 0.63889,0 1,8.66667 1,24 0,15.33333 -0.36111,24 -1,24 -0.63889,0 -1,-8.66667 -1,-24 z m 0,-38.5 c 0,-5 0.41176,-8.5 1,-8.5 0.58824,0 1,3.5 1,8.5 0,5 -0.41176,8.5 -1,8.5 -0.58824,0 -1,-3.5 -1,-8.5 z m 22,-21.85078 c 0,-0.19292 -0.49402,-1.76792 -1.09783,-3.5 l -1.09782,-3.14922 h -9.77973 c -10.19406,0 -11.12176,0.35339 -12.46962,4.75 l -0.68978,2.25 h 12.56739 c 6.91207,0 12.56739,-0.15785 12.56739,-0.35078 z m -3,-10.64922 c 0,-0.59649 -3.83333,-1 -9.5,-1 -5.66667,0 -9.5,0.40351 -9.5,1 0,0.59649 3.83333,1 9.5,1 5.66667,0 9.5,-0.40351 9.5,-1 z m 0,-7.5 v -3.5 h -9.5 -9.5 v 3.5 3.5 h 9.5 9.5 z m 0,-22.5 v -16 h -9.5 -9.5 v 16 16 h 9.5 9.5 z m -10.82332,8.44718 c 0.45227,-2.17211 2.22702,-2.30502 2.63295,-0.19718 0.2108,1.0946 -0.27967,1.75 -1.30963,1.75 -0.96073,0 -1.51197,-0.64684 -1.32332,-1.55282 z m -3.17668,-10.44718 c 0,-1.1 0.40787,-2 0.90638,-2 0.49851,0 0.67103,0.9 0.38337,2 -0.28766,1.1 -0.69553,2 -0.90638,2 -0.21085,0 -0.38337,-0.9 -0.38337,-2 z m 7.5,-4 c -0.33992,-0.55 -0.14148,-1 0.44098,-1 0.58246,0 1.05902,0.45 1.05902,1 0,0.55 -0.19844,1 -0.44098,1 -0.24254,0 -0.7191,-0.45 -1.05902,-1 z m 5.29044,-21.25 -0.29044,-8.25 -8.25,-0.29044 -8.25,-0.29044 v 8.54044 8.54044 h 8.54044 8.54044 z m -14.79044,2.25 c 0,-1.11111 0.66667,-2 1.5,-2 0.83333,0 1.5,0.88889 1.5,2 0,1.11111 -0.66667,2 -1.5,2 -0.83333,0 -1.5,-0.88889 -1.5,-2 z m 10,-0.0833 c 0,-2.43704 2.33677,-2.09257 2.82332,0.4162 0.19138,0.98676 -0.31876,1.66713 -1.25,1.66713 -0.92763,0 -1.57332,-0.85499 -1.57332,-2.08333 z"
         id="path3923"
         inkscape:connector-curvature="0"
         inkscape:export-xdpi="390.81299"
         inkscape:export-ydpi="390.81299" />
    </g>
    <g
       id="g3879"
       transform="translate(80.096317,-369.39943)" />
  </g>
</svg>
